
<svg
          xmlns="http://www.w3.org/2000/svg"
          className="w-6 h-6"
          
          viewBox="0 0 24 24"
          
        >
          <path
            strokeLinecap="round"
            strokeLinejoin="round"
            strokeWidth="2"
            d="M45.175,529.668l108.887-117.085h330.431V0H45.894L45.175,529.668z M383.896,173.016c20.527,0,37.164,16.64,37.164,37.164
			c0,20.527-16.641,37.164-37.164,37.164s-37.164-16.641-37.164-37.164C346.731,189.653,363.372,173.016,383.896,173.016z
			 M265.192,173.016c20.526,0,37.165,16.64,37.165,37.164c0,20.527-16.641,37.164-37.165,37.164
			c-20.523,0-37.164-16.641-37.164-37.164C228.028,189.653,244.668,173.016,265.192,173.016z M146.488,173.016
			c20.527,0,37.164,16.64,37.164,37.164c0,20.527-16.641,37.164-37.164,37.164c-20.526,0-37.164-16.641-37.164-37.164
			C109.325,189.653,125.965,173.016,146.488,173.016z" />
        </svg>